<svg width="42" height="48" viewBox="0 0 42 48" fill="none" xmlns="http://www.w3.org/2000/svg">
<mask id="mask0_0_27" style="mask-type:luminance" maskUnits="userSpaceOnUse" x="0" y="0" width="42" height="48">
<rect x="0.9104" y="0.0353394" width="40.3635" height="47.7772" rx="4.94247" fill="white"/>
</mask>
<g mask="url(#mask0_0_27)">
<path fill-rule="evenodd" clip-rule="evenodd" d="M-13.9169 -24.3005L35.3762 -64.2172L106.915 24.1263L57.6223 64.043L-13.9169 -24.3005Z" fill="#358ED7" fill-opacity="0.1"/>
<path fill-rule="evenodd" clip-rule="evenodd" d="M32.2128 18.5951L32.0518 19.2354C31.5685 19.4204 31.1829 19.5615 30.8948 19.6587C30.6068 19.756 30.2725 19.8046 29.8917 19.8046C29.3059 19.8046 28.8507 19.6659 28.5261 19.3884C28.2015 19.1109 28.0392 18.7587 28.0392 18.3318C28.0392 18.1658 28.0514 17.9962 28.0758 17.8231C28.1002 17.65 28.1393 17.4543 28.193 17.2361L28.7934 15.1586C28.8471 14.9594 28.8922 14.7708 28.9288 14.5929C28.9655 14.4151 28.9838 14.2526 28.9838 14.1056C28.9838 13.84 28.9276 13.655 28.8153 13.5506C28.7031 13.4463 28.4883 13.3941 28.171 13.3941C28.0148 13.3941 27.8549 13.4178 27.6914 13.4652C27.5279 13.5127 27.3875 13.5577 27.2704 13.6004L27.4315 12.9601C27.8269 12.8036 28.2052 12.6696 28.5664 12.5581C28.9276 12.4466 29.2693 12.3909 29.5915 12.3909C30.1724 12.3909 30.6203 12.5273 30.9351 12.8C31.25 13.0727 31.4074 13.4273 31.4074 13.8637C31.4074 13.9538 31.3964 14.1127 31.3745 14.3404C31.3525 14.568 31.3122 14.7767 31.2536 14.9665L30.6532 17.0369C30.6044 17.2029 30.5605 17.3927 30.5214 17.6061C30.4824 17.8195 30.4628 17.9808 30.4628 18.0899C30.4628 18.365 30.5263 18.5524 30.6532 18.652C30.7801 18.7516 30.9998 18.8014 31.3122 18.8014C31.4587 18.8014 31.6246 18.7765 31.8101 18.7267C31.9956 18.6769 32.1299 18.633 32.2128 18.5951ZM32.2131 9.51111C32.2131 9.85228 32.0925 10.1429 31.8515 10.3831C31.6104 10.6233 31.3201 10.7434 30.9806 10.7434C30.641 10.7434 30.3497 10.6233 30.1065 10.3831C29.8634 10.1429 29.7418 9.85228 29.7418 9.51111C29.7418 9.16994 29.8634 8.87815 30.1065 8.63574C30.3497 8.39333 30.641 8.27213 30.9806 8.27213C31.3201 8.27213 31.6104 8.39333 31.8515 8.63574C32.0925 8.87815 32.2131 9.16994 32.2131 9.51111Z" fill="#86939E"/>
</g>
</svg>
